<?xml version="1.0" encoding="UTF-8"?>
<svg width="680px" height="680px" viewBox="0 0 680 680" version="1.1" xmlns="http://www.w3.org/2000/svg" xmlns:xlink="http://www.w3.org/1999/xlink">
    <!-- Generator: Sketch 60.1 (88133) - https://sketch.com -->
    <title>logo_normal</title>
    <desc>Created with Sketch.</desc>
    <defs>
        <linearGradient x1="99.4140625%" y1="0.5859375%" x2="0%" y2="100%" id="linearGradient-1">
            <stop stop-color="#73CE5B" offset="0%"></stop>
            <stop stop-color="#25BC67" offset="100%"></stop>
        </linearGradient>
        <rect id="path-2" x="0" y="0" width="680" height="680" rx="340"></rect>
        <path d="M36.9719601,378.858878 C27.954103,385.772125 14.9895484,385.102247 6.73654403,376.849242 C2.42320733,372.535906 0,366.685766 0,360.585786 L0,102 C0,45.6669555 45.6669555,5.68434189e-14 102,5.68434189e-14 L336,5.68434189e-14 C392.333044,5.68434189e-14 438,45.6669555 438,102 L438,222 C438,278.333044 392.333044,324 336,324 L117.167598,324 C113.318626,324 109.571007,325.233772 106.474774,327.520237 L37.2849221,378.614643 L36.9719601,378.858878 Z M80.336762,292.125262 C91.0015643,284.24966 103.91003,280 117.167598,280 L336,280 C368.032515,280 394,254.032515 394,222 L394,102 C394,69.9674845 368.032515,44 336,44 L102,44 C69.9674845,44 44,69.9674845 44,102 L44,318.958752 L80.336762,292.125262 Z" id="path-4"></path>
        <linearGradient x1="81.9942868%" y1="0%" x2="81.9942868%" y2="59.892104%" id="linearGradient-6">
            <stop stop-color="#73CE5B" offset="0%"></stop>
            <stop stop-color="#25BC67" stop-opacity="0" offset="100%"></stop>
        </linearGradient>
        <linearGradient x1="23.7177564%" y1="81.5726936%" x2="100%" y2="81.5726936%" id="linearGradient-7">
            <stop stop-color="#25BC67" stop-opacity="0" offset="0%"></stop>
            <stop stop-color="#73CE5B" offset="100%"></stop>
        </linearGradient>
        <linearGradient x1="-3.94354997%" y1="50%" x2="13.4498784%" y2="50%" id="linearGradient-8">
            <stop stop-color="#73CE5B" offset="0%"></stop>
            <stop stop-color="#25BC67" stop-opacity="0" offset="100%"></stop>
        </linearGradient>
        <linearGradient x1="8.79443773%" y1="22.2968926%" x2="8.79443773%" y2="100%" id="linearGradient-9">
            <stop stop-color="#25BC67" stop-opacity="0" offset="0%"></stop>
            <stop stop-color="#73CE5B" offset="100%"></stop>
        </linearGradient>
    </defs>
    <g id="小店播v0.5" stroke="none" stroke-width="1" fill="none" fill-rule="evenodd">
        <g id="小店播logo" transform="translate(-58.000000, -58.000000)">
            <g id="logo_normal" transform="translate(58.000000, 58.000000)">
                <g id="编组备份">
                    <mask id="mask-3" fill="white">
                        <use xlink:href="#path-2"></use>
                    </mask>
                    <use id="蒙版" fill="url(#linearGradient-1)" xlink:href="#path-2"></use>
                </g>
                <g id="编组-26" transform="translate(121.000000, 167.000000)">
                    <g id="矩形备份-14">
                        <mask id="mask-5" fill="white">
                            <use xlink:href="#path-4"></use>
                        </mask>
                        <use id="蒙版" fill="#FFFFFF" fill-rule="nonzero" xlink:href="#path-4"></use>
                        <path d="M376,44 C411.898509,44 441,73.1014913 441,109 L441,192 C441,227.898509 411.898509,257 376,257 L191,257 C155.101491,257 126,227.898509 126,192 L126,109 C126,73.1014913 155.101491,44 191,44 L376,44 Z M376,94 L191,94 C182.715729,94 176,100.715729 176,109 L176,192 C176,200.284271 182.715729,207 191,207 L376,207 C384.284271,207 391,200.284271 391,192 L391,109 C391,100.715729 384.284271,94 376,94 Z" fill="url(#linearGradient-6)" fill-rule="nonzero" opacity="0.504301525" mask="url(#mask-5)"></path>
                        <path d="M329,114 C364.898509,114 394,143.101491 394,179 L394,262 C394,297.898509 364.898509,327 329,327 L144,327 C108.101491,327 79,297.898509 79,262 L79,179 C79,143.101491 108.101491,114 144,114 L329,114 Z M329,164 L144,164 C135.715729,164 129,170.715729 129,179 L129,262 C129,270.284271 135.715729,277 144,277 L329,277 C337.284271,277 344,270.284271 344,262 L344,179 C344,170.715729 337.284271,164 329,164 Z" id="矩形备份-16" fill="url(#linearGradient-7)" fill-rule="nonzero" opacity="0.504301525" mask="url(#mask-5)"></path>
                        <path d="M294,244 C329.898509,244 359,273.101491 359,309 L359,392 C359,427.898509 329.898509,457 294,457 L109,457 C73.1014913,457 44,427.898509 44,392 L44,309 C44,273.101491 73.1014913,244 109,244 L294,244 Z M294,294 L109,294 C100.715729,294 94,300.715729 94,309 L94,392 C94,400.284271 100.715729,407 109,407 L294,407 C302.284271,407 309,400.284271 309,392 L309,309 C309,300.715729 302.284271,294 294,294 Z" id="矩形备份-17" fill="url(#linearGradient-8)" fill-rule="nonzero" opacity="0.504301525" mask="url(#mask-5)"></path>
                        <path d="M268,21 C303.898509,21 263,50.1014913 263,86 L263,169 C263,204.898509 303.898509,234 268,234 L83,234 C47.1014913,234 18,204.898509 18,169 L18,86 C18,50.1014913 47.1014913,21 83,21 L268,21 Z M268,71 L83,71 C74.7157288,71 68,77.7157288 68,86 L68,169 C68,177.284271 74.7157288,184 83,184 L268,184 C276.284271,184 283,177.284271 283,169 L283,86 C283,77.7157288 276.284271,71 268,71 Z" id="矩形备份-15" fill="url(#linearGradient-9)" fill-rule="nonzero" opacity="0.504301525" mask="url(#mask-5)" transform="translate(150.500000, 127.500000) rotate(90.000000) translate(-150.500000, -127.500000) "></path>
                    </g>
                    <path d="M262.034646,122.310574 L315.00485,196.721099 C320.129446,203.919936 318.447941,213.910051 311.249105,219.034646 C308.539529,220.963497 305.296202,222 301.970204,222 L196.029796,222 C187.19324,222 180.029796,214.836556 180.029796,206 C180.029796,202.674002 181.066299,199.430675 182.99515,196.721099 L235.965354,122.310574 C241.089949,115.111738 251.080064,113.430234 258.278901,118.554829 C259.731319,119.588754 261.000721,120.858156 262.034646,122.310574 Z" id="三角形备份-3" fill="#FFFFFF" transform="translate(249.000000, 163.000000) rotate(90.000000) translate(-249.000000, -163.000000) "></path>
                </g>
            </g>
        </g>
    </g>
</svg>